HIERARCHY
ROOT Hips
{
    OFFSET 0.000000 0.000000 0.000000
    CHANNELS 6 Xposition Yposition Zposition Zrotation Xrotation Yrotation
    JOINT Spine
    {
        OFFSET -0.000000 14.517291 0.000000
        CHANNELS 3 Zrotation Xrotation Yrotation
        JOINT Spine1
        {
            OFFSET -0.000000 37.558300 0.000000
            CHANNELS 3 Zrotation Xrotation Yrotation
            JOINT Neck
            {
                OFFSET -0.000000 37.404057 3.400369
                CHANNELS 3 Zrotation Xrotation Yrotation
                JOINT Head
                {
                    OFFSET -0.000000 24.785618 -3.540803
                    CHANNELS 3 Zrotation Xrotation Yrotation
                    End Site
                    {
                        OFFSET -0.000000 35.408028 0.000000
                    }
                }
            }
            JOINT LeftShoulder
            {
                OFFSET 6.992933 33.973492 -0.192664
                CHANNELS 3 Zrotation Xrotation Yrotation
                JOINT LeftArm
                {
                    OFFSET 21.527611 0.000000 0.000000
                    CHANNELS 3 Zrotation Xrotation Yrotation
                    JOINT LeftForeArm
                    {
                        OFFSET 56.353916 0.000000 0.000000
                        CHANNELS 3 Zrotation Xrotation Yrotation
                        JOINT LeftHand
                        {
                            OFFSET 47.774071 0.000000 0.000000
                            CHANNELS 3 Zrotation Xrotation Yrotation
                            End Site
                            {
                                OFFSET 26.556021 0.000000 0.000000
                            }
                        }
                    }
                }
            }
            JOINT RightShoulder
            {
                OFFSET -7.065357 33.973492 -0.192664
                CHANNELS 3 Zrotation Xrotation Yrotation
                JOINT RightArm
                {
                    OFFSET -21.527611 0.000000 0.000000
                    CHANNELS 3 Zrotation Xrotation Yrotation
                    JOINT RightForeArm
                    {
                        OFFSET -56.353916 0.000000 0.000000
                        CHANNELS 3 Zrotation Xrotation Yrotation
                        JOINT RightHand
                        {
                            OFFSET -47.774071 0.000000 0.000000
                            CHANNELS 3 Zrotation Xrotation Yrotation
                            End Site
                            {
                                OFFSET -26.556021 0.000000 0.000000
                            }
                        }
                    }
                }
            }
        }
    }
    JOINT LeftUpLeg
    {
        OFFSET 17.704014 0.000000 0.000000
        CHANNELS 3 Zrotation Xrotation Yrotation
        JOINT LeftLeg
        {
            OFFSET -0.000000 -81.181816 0.000000
            CHANNELS 3 Zrotation Xrotation Yrotation
            JOINT LeftFoot
            {
                OFFSET -0.000000 -62.821102 0.000000
                CHANNELS 3 Zrotation Xrotation Yrotation
                JOINT LeftToeBase
                {
                    OFFSET -0.000000 -11.507608 26.556021
                    CHANNELS 3 Zrotation Xrotation Yrotation
                    End Site
                    {
                        OFFSET -0.000000 0.000000 7.081605
                    }
                }
            }
        }
    }
    JOINT RightUpLeg
    {
        OFFSET -17.704014 0.000000 0.000000
        CHANNELS 3 Zrotation Xrotation Yrotation
        JOINT RightLeg
        {
            OFFSET -0.000000 -81.181816 0.000000
            CHANNELS 3 Zrotation Xrotation Yrotation
            JOINT RightFoot
            {
                OFFSET -0.000000 -62.821102 0.000000
                CHANNELS 3 Zrotation Xrotation Yrotation
                JOINT RightToeBase
                {
                    OFFSET -0.000000 -11.507608 26.556021
                    CHANNELS 3 Zrotation Xrotation Yrotation
                    End Site
                    {
                        OFFSET -0.000000 0.000000 7.081605
                    }
                }
            }
        }
    }
}
MOTION
Frames:    6
Frame Time:    0.008333
24.970514    153.654343    -99.583107    -5.012754    -4.996618    25.562613    0.573608    0.916347    -0.376543    -8.422340    -0.456482    -0.154441    16.913074    3.050228    2.103494    4.604454    -3.373796    0.911161    14.640265    -0.868396    -15.025551    -19.937155    -18.739401    -29.594135    -22.821211    -25.676596    -102.600945    -28.606352    -42.593918    -33.896202    -12.877057    0.198650    -7.374117    23.106241    20.338755    11.966587    11.283876    12.705623    2.850477    10.677763    13.638827    13.209963    10.170340    -14.914564    -2.951677    -18.351290    47.427597    -13.694706    17.291029    -24.985424    46.823402    0.000000    0.000000    0.000000    -22.390545    -13.089213    -7.008664    5.519747    20.829971    -12.068485    6.619844    21.184050    -23.111629    0.000000    0.000000    0.000000    
25.251007    153.825119    -99.843521    -5.085177    -5.017230    25.582909    0.589646    0.947637    -0.431227    -8.372620    -0.487152    -0.174693    16.987801    3.037511    2.124021    4.476386    -3.400910    0.900241    14.715801    -0.811199    -14.983586    -19.916609    -18.430130    -29.642736    -22.662598    -26.139391    -102.653954    -28.776482    -42.782104    -33.940281    -12.834724    0.182926    -7.345552    23.075253    20.365469    11.890511    11.228381    12.727846    2.860962    10.843566    13.672327    13.126436    10.057392    -14.863442    -2.902570    -18.083504    47.186962    -13.865729    17.218321    -24.804634    46.738850    0.000000    0.000000    0.000000    -22.236500    -13.630827    -7.003208    5.899676    21.925564    -11.763618    6.046931    20.267532    -22.540197    0.000000    0.000000    0.000000    
25.521856    153.982361    -100.091492    -5.137140    -5.040650    25.626337    0.613202    0.971571    -0.487802    -8.365574    -0.485512    -0.193453    17.033892    3.075505    2.114580    4.414096    -3.513352    0.883811    14.782006    -0.820591    -14.993852    -19.879381    -18.592268    -29.598484    -22.802969    -25.867435    -102.548019    -28.626442    -42.697243    -33.933937    -12.802922    0.190204    -7.369882    23.052435    20.368212    11.852403    11.234422    12.763288    2.839694    10.843022    13.708158    13.112638    9.929501    -14.810207    -2.966690    -17.908571    46.935768    -13.939131    17.180460    -24.599142    46.664890    0.000000    0.000000    0.000000    -22.102776    -14.115437    -7.156372    6.314281    22.925444    -11.433516    5.741954    19.255503    -22.245888    0.000000    0.000000    0.000000    
25.784266    154.135391    -100.333282    -5.185911    -5.064723    25.671141    0.607781    0.962697    -0.541291    -8.291092    -0.418651    -0.205888    17.054764    3.107586    2.123932    4.330557    -3.656622    0.887082    14.797420    -0.849252    -15.001104    -19.857637    -18.520334    -29.591366    -22.781902    -25.972160    -102.521423    -28.659534    -42.738140    -33.956806    -12.809292    0.137227    -7.340535    23.040390    20.312651    11.719204    11.242227    12.511589    2.987275    11.054448    13.450646    12.941623    9.823614    -14.748706    -3.077917    -17.842957    46.654476    -13.963469    17.167799    -24.388332    46.645687    0.000000    0.000000    0.000000    -21.964954    -14.572341    -7.331820    6.785285    23.842201    -11.408456    5.445246    18.235912    -21.805023    0.000000    0.000000    0.000000    
26.030041    154.284409    -100.568626    -5.242801    -5.092777    25.712297    0.608391    1.006345    -0.586505    -8.190604    -0.419145    -0.220781    16.986002    3.059925    2.122017    4.333604    -3.691824    0.888144    14.779770    -0.852089    -15.011768    -19.809540    -18.550951    -29.538591    -22.841578    -25.898710    -102.520744    -28.605982    -42.763462    -33.897587    -12.846508    0.141032    -7.368056    23.015190    20.283176    11.679311    11.289703    12.675154    2.885260    10.969176    13.615366    12.969954    9.744498    -14.674031    -3.117845    -17.727564    46.367107    -14.078893    17.178221    -24.181999    46.629539    0.000000    0.000000    0.000000    -21.797909    -14.994635    -7.677780    7.220490    24.670725    -11.357923    5.271569    17.236824    -21.426405    0.000000    0.000000    0.000000    
26.274698    154.426605    -100.799141    -5.291116    -5.126803    25.768333    0.633246    1.038722    -0.656238    -8.150745    -0.394884    -0.241903    16.956497    3.050608    2.127002    4.334916    -3.762841    0.898156    14.804169    -0.832664    -14.968387    -19.802572    -18.454544    -29.576979    -22.784126    -26.044394    -102.539856    -28.675682    -42.809410    -33.924473    -12.854053    0.099733    -7.337973    23.042561    20.311211    11.530528    11.259906    12.590616    2.898037    10.732679    13.511533    13.048218    9.647544    -14.607418    -3.142054    -17.566082    46.121082    -14.182670    17.134930    -24.005066    46.559559    0.000000    0.000000    0.000000    -21.612261    -15.362104    -8.136633    7.576737    25.377981    -11.280540    5.290549    16.298111    -21.140394    0.000000    0.000000    0.000000    
